<mxfile host="app.diagrams.net" modified="2020-11-21T14:12:48.343Z" agent="5.0 (Windows NT 10.0; Win64; x64) AppleWebKit/537.36 (KHTML, like Gecko) Chrome/86.0.4240.198 Safari/537.36" etag="wIh_5P1-f-6Iy_Djtt5v" version="13.10.0" type="github">
  <diagram id="C5RBs43oDa-KdzZeNtuy" name="Page-1">
    <mxGraphModel dx="849" dy="667" grid="1" gridSize="10" guides="1" tooltips="1" connect="1" arrows="1" fold="1" page="1" pageScale="1" pageWidth="827" pageHeight="1169" math="0" shadow="0">
      <root>
        <mxCell id="WIyWlLk6GJQsqaUBKTNV-0" />
        <mxCell id="WIyWlLk6GJQsqaUBKTNV-1" parent="WIyWlLk6GJQsqaUBKTNV-0" />
        <mxCell id="IgTbynw6sSsbP-qtUQ4T-0" value="Raspberry pi" style="rounded=0;whiteSpace=wrap;html=1;" vertex="1" parent="WIyWlLk6GJQsqaUBKTNV-1">
          <mxGeometry x="273" y="80" width="140" height="90" as="geometry" />
        </mxCell>
        <mxCell id="IgTbynw6sSsbP-qtUQ4T-9" value="GPIO" style="text;html=1;strokeColor=none;fillColor=none;align=center;verticalAlign=middle;whiteSpace=wrap;rounded=0;" vertex="1" parent="WIyWlLk6GJQsqaUBKTNV-1">
          <mxGeometry x="350" y="180" width="40" height="20" as="geometry" />
        </mxCell>
        <mxCell id="IgTbynw6sSsbP-qtUQ4T-11" value="Sensor" style="rounded=1;whiteSpace=wrap;html=1;" vertex="1" parent="WIyWlLk6GJQsqaUBKTNV-1">
          <mxGeometry x="130" y="240" width="100" height="40" as="geometry" />
        </mxCell>
        <mxCell id="IgTbynw6sSsbP-qtUQ4T-13" value="LCD" style="rounded=1;whiteSpace=wrap;html=1;" vertex="1" parent="WIyWlLk6GJQsqaUBKTNV-1">
          <mxGeometry x="293" y="240" width="100" height="40" as="geometry" />
        </mxCell>
        <mxCell id="IgTbynw6sSsbP-qtUQ4T-14" value="TR" style="rounded=1;whiteSpace=wrap;html=1;" vertex="1" parent="WIyWlLk6GJQsqaUBKTNV-1">
          <mxGeometry x="499" y="240" width="100" height="40" as="geometry" />
        </mxCell>
        <mxCell id="IgTbynw6sSsbP-qtUQ4T-19" value="ADC converter&lt;br&gt;MCP3028" style="rounded=1;whiteSpace=wrap;html=1;" vertex="1" parent="WIyWlLk6GJQsqaUBKTNV-1">
          <mxGeometry x="20" y="360" width="100" height="50" as="geometry" />
        </mxCell>
        <mxCell id="IgTbynw6sSsbP-qtUQ4T-21" value="수위 센서" style="rounded=1;whiteSpace=wrap;html=1;" vertex="1" parent="WIyWlLk6GJQsqaUBKTNV-1">
          <mxGeometry x="20" y="440" width="100" height="50" as="geometry" />
        </mxCell>
        <mxCell id="IgTbynw6sSsbP-qtUQ4T-22" value="" style="endArrow=classic;html=1;" edge="1" parent="WIyWlLk6GJQsqaUBKTNV-1">
          <mxGeometry width="50" height="50" relative="1" as="geometry">
            <mxPoint x="72.5" y="440" as="sourcePoint" />
            <mxPoint x="72.78999999999999" y="410" as="targetPoint" />
          </mxGeometry>
        </mxCell>
        <mxCell id="IgTbynw6sSsbP-qtUQ4T-24" value="조도센서" style="rounded=1;whiteSpace=wrap;html=1;" vertex="1" parent="WIyWlLk6GJQsqaUBKTNV-1">
          <mxGeometry x="130" y="360" width="80" height="50" as="geometry" />
        </mxCell>
        <mxCell id="IgTbynw6sSsbP-qtUQ4T-25" value="온습도 DHT22" style="rounded=1;whiteSpace=wrap;html=1;" vertex="1" parent="WIyWlLk6GJQsqaUBKTNV-1">
          <mxGeometry x="193" y="440" width="100" height="50" as="geometry" />
        </mxCell>
        <mxCell id="IgTbynw6sSsbP-qtUQ4T-31" value="" style="line;strokeWidth=2;direction=south;html=1;" vertex="1" parent="WIyWlLk6GJQsqaUBKTNV-1">
          <mxGeometry x="175" y="280" width="8" height="80" as="geometry" />
        </mxCell>
        <mxCell id="IgTbynw6sSsbP-qtUQ4T-33" value="" style="line;strokeWidth=2;html=1;" vertex="1" parent="WIyWlLk6GJQsqaUBKTNV-1">
          <mxGeometry x="70" y="315" width="173" height="10" as="geometry" />
        </mxCell>
        <mxCell id="IgTbynw6sSsbP-qtUQ4T-34" value="" style="line;strokeWidth=2;direction=south;html=1;" vertex="1" parent="WIyWlLk6GJQsqaUBKTNV-1">
          <mxGeometry x="70" y="320" width="2.5" height="40" as="geometry" />
        </mxCell>
        <mxCell id="IgTbynw6sSsbP-qtUQ4T-35" value="" style="line;strokeWidth=2;direction=south;html=1;" vertex="1" parent="WIyWlLk6GJQsqaUBKTNV-1">
          <mxGeometry x="238" y="320" width="7.5" height="120" as="geometry" />
        </mxCell>
        <mxCell id="IgTbynw6sSsbP-qtUQ4T-38" value="" style="line;strokeWidth=2;direction=south;html=1;" vertex="1" parent="WIyWlLk6GJQsqaUBKTNV-1">
          <mxGeometry x="340" y="170" width="4.38" height="70" as="geometry" />
        </mxCell>
        <mxCell id="IgTbynw6sSsbP-qtUQ4T-39" value="" style="line;strokeWidth=2;html=1;" vertex="1" parent="WIyWlLk6GJQsqaUBKTNV-1">
          <mxGeometry x="183" y="200" width="367" height="16" as="geometry" />
        </mxCell>
        <mxCell id="IgTbynw6sSsbP-qtUQ4T-41" value="" style="line;strokeWidth=2;direction=south;html=1;" vertex="1" parent="WIyWlLk6GJQsqaUBKTNV-1">
          <mxGeometry x="175" y="207" width="16" height="33" as="geometry" />
        </mxCell>
        <mxCell id="IgTbynw6sSsbP-qtUQ4T-45" value="" style="line;strokeWidth=2;direction=south;html=1;" vertex="1" parent="WIyWlLk6GJQsqaUBKTNV-1">
          <mxGeometry x="544" y="208" width="10" height="32" as="geometry" />
        </mxCell>
        <mxCell id="IgTbynw6sSsbP-qtUQ4T-47" value="" style="line;strokeWidth=2;direction=south;html=1;" vertex="1" parent="WIyWlLk6GJQsqaUBKTNV-1">
          <mxGeometry x="338" y="280" width="10" height="40" as="geometry" />
        </mxCell>
        <mxCell id="IgTbynw6sSsbP-qtUQ4T-49" value="" style="line;strokeWidth=2;html=1;" vertex="1" parent="WIyWlLk6GJQsqaUBKTNV-1">
          <mxGeometry x="293" y="315" width="102" height="10" as="geometry" />
        </mxCell>
        <mxCell id="IgTbynw6sSsbP-qtUQ4T-50" value="" style="line;strokeWidth=2;direction=south;html=1;" vertex="1" parent="WIyWlLk6GJQsqaUBKTNV-1">
          <mxGeometry x="289" y="320" width="10" height="40" as="geometry" />
        </mxCell>
        <mxCell id="IgTbynw6sSsbP-qtUQ4T-51" value="" style="line;strokeWidth=2;direction=south;html=1;" vertex="1" parent="WIyWlLk6GJQsqaUBKTNV-1">
          <mxGeometry x="390" y="320" width="10" height="40" as="geometry" />
        </mxCell>
        <mxCell id="IgTbynw6sSsbP-qtUQ4T-52" value="tact switch" style="rounded=1;whiteSpace=wrap;html=1;" vertex="1" parent="WIyWlLk6GJQsqaUBKTNV-1">
          <mxGeometry x="258" y="360" width="80" height="50" as="geometry" />
        </mxCell>
        <mxCell id="IgTbynw6sSsbP-qtUQ4T-53" value="1602 I2C CLCD" style="rounded=1;whiteSpace=wrap;html=1;" vertex="1" parent="WIyWlLk6GJQsqaUBKTNV-1">
          <mxGeometry x="350" y="360" width="80" height="50" as="geometry" />
        </mxCell>
        <mxCell id="IgTbynw6sSsbP-qtUQ4T-54" value="" style="line;strokeWidth=2;direction=south;html=1;" vertex="1" parent="WIyWlLk6GJQsqaUBKTNV-1">
          <mxGeometry x="544" y="280" width="10" height="40" as="geometry" />
        </mxCell>
        <mxCell id="IgTbynw6sSsbP-qtUQ4T-57" value="" style="line;strokeWidth=2;html=1;" vertex="1" parent="WIyWlLk6GJQsqaUBKTNV-1">
          <mxGeometry x="488.75" y="315" width="110" height="10" as="geometry" />
        </mxCell>
        <mxCell id="IgTbynw6sSsbP-qtUQ4T-58" value="" style="line;strokeWidth=2;direction=south;html=1;" vertex="1" parent="WIyWlLk6GJQsqaUBKTNV-1">
          <mxGeometry x="488.75" y="320" width="2.5" height="40" as="geometry" />
        </mxCell>
        <mxCell id="IgTbynw6sSsbP-qtUQ4T-59" value="조도센서" style="rounded=1;whiteSpace=wrap;html=1;" vertex="1" parent="WIyWlLk6GJQsqaUBKTNV-1">
          <mxGeometry x="450" y="360" width="80" height="50" as="geometry" />
        </mxCell>
        <mxCell id="IgTbynw6sSsbP-qtUQ4T-62" value="" style="line;strokeWidth=2;direction=south;html=1;" vertex="1" parent="WIyWlLk6GJQsqaUBKTNV-1">
          <mxGeometry x="594" y="320" width="10" height="40" as="geometry" />
        </mxCell>
        <mxCell id="IgTbynw6sSsbP-qtUQ4T-63" value="12V DC converter" style="rounded=1;whiteSpace=wrap;html=1;" vertex="1" parent="WIyWlLk6GJQsqaUBKTNV-1">
          <mxGeometry x="559" y="360" width="80" height="50" as="geometry" />
        </mxCell>
        <mxCell id="IgTbynw6sSsbP-qtUQ4T-64" value="LED strip" style="rounded=1;whiteSpace=wrap;html=1;" vertex="1" parent="WIyWlLk6GJQsqaUBKTNV-1">
          <mxGeometry x="559" y="440" width="80" height="50" as="geometry" />
        </mxCell>
        <mxCell id="IgTbynw6sSsbP-qtUQ4T-65" value="" style="endArrow=classic;html=1;" edge="1" parent="WIyWlLk6GJQsqaUBKTNV-1">
          <mxGeometry width="50" height="50" relative="1" as="geometry">
            <mxPoint x="598.5" y="440" as="sourcePoint" />
            <mxPoint x="598.79" y="410" as="targetPoint" />
          </mxGeometry>
        </mxCell>
        <mxCell id="IgTbynw6sSsbP-qtUQ4T-66" value="" style="line;strokeWidth=2;html=1;" vertex="1" parent="WIyWlLk6GJQsqaUBKTNV-1">
          <mxGeometry x="413" y="120" width="147" height="10" as="geometry" />
        </mxCell>
        <mxCell id="IgTbynw6sSsbP-qtUQ4T-67" value="" style="line;strokeWidth=2;html=1;" vertex="1" parent="WIyWlLk6GJQsqaUBKTNV-1">
          <mxGeometry x="163" y="120" width="110" height="10" as="geometry" />
        </mxCell>
        <mxCell id="IgTbynw6sSsbP-qtUQ4T-69" value="PI camera" style="rounded=0;whiteSpace=wrap;html=1;" vertex="1" parent="WIyWlLk6GJQsqaUBKTNV-1">
          <mxGeometry x="50" y="95" width="113" height="60" as="geometry" />
        </mxCell>
        <mxCell id="IgTbynw6sSsbP-qtUQ4T-70" value="camera connector" style="text;html=1;strokeColor=none;fillColor=none;align=center;verticalAlign=middle;whiteSpace=wrap;rounded=0;" vertex="1" parent="WIyWlLk6GJQsqaUBKTNV-1">
          <mxGeometry x="193" y="95" width="40" height="20" as="geometry" />
        </mxCell>
        <mxCell id="IgTbynw6sSsbP-qtUQ4T-71" value="Wireless" style="text;html=1;strokeColor=none;fillColor=none;align=center;verticalAlign=middle;whiteSpace=wrap;rounded=0;" vertex="1" parent="WIyWlLk6GJQsqaUBKTNV-1">
          <mxGeometry x="450" y="95" width="40" height="20" as="geometry" />
        </mxCell>
        <mxCell id="IgTbynw6sSsbP-qtUQ4T-72" value="2.4GHz 802.11n &lt;br&gt;WI-FI" style="rounded=0;whiteSpace=wrap;html=1;" vertex="1" parent="WIyWlLk6GJQsqaUBKTNV-1">
          <mxGeometry x="500" y="50" width="113" height="60" as="geometry" />
        </mxCell>
        <mxCell id="IgTbynw6sSsbP-qtUQ4T-73" value="" style="endArrow=none;html=1;" edge="1" parent="WIyWlLk6GJQsqaUBKTNV-1">
          <mxGeometry width="50" height="50" relative="1" as="geometry">
            <mxPoint x="559" y="140" as="sourcePoint" />
            <mxPoint x="559" y="110" as="targetPoint" />
          </mxGeometry>
        </mxCell>
        <mxCell id="IgTbynw6sSsbP-qtUQ4T-74" value="bluetooth 4.1" style="rounded=0;whiteSpace=wrap;html=1;" vertex="1" parent="WIyWlLk6GJQsqaUBKTNV-1">
          <mxGeometry x="503" y="140" width="110" height="50" as="geometry" />
        </mxCell>
      </root>
    </mxGraphModel>
  </diagram>
</mxfile>
